<svg id="圖層_1" data-name="圖層 1" xmlns="http://www.w3.org/2000/svg" viewBox="0 0 100 100"><defs><style>.cls-1{fill:#f9e069;}.cls-2{fill:#f75c2f;}.cls-3{fill:#a6928c;}</style></defs><path class="cls-1" d="M55.25,12.2c-.06.44-.13.88-.19,1.31-1.91,12.34-5.94,21.16-10.92,27.12a32.15,32.15,0,0,1-2.66,2.8A25.7,25.7,0,0,1,24.57,50.9c-.27,0-.54,0-.81,0a15.18,15.18,0,0,1-1.91-.11,19.15,19.15,0,0,1-9-3.42,1.88,1.88,0,0,1-.23-.16,3.79,3.79,0,0,1-.4-.3,21.29,21.29,0,0,1-2.38-2A28.74,28.74,0,0,1,4,36.72c-.21-.46-.42-.92-.62-1.39s-.31-.76-.46-1.14a.58.58,0,0,1,0-.14c-.15-.4-.3-.81-.43-1.22a1.34,1.34,0,0,1-.09-.26c-.13-.39-.25-.79-.36-1.19s-.19-.68-.27-1a3.37,3.37,0,0,1-.12-.48c-.06-.23-.11-.45-.16-.68l-.18-.87c-.07-.38-.14-.75-.2-1.13S1,26.59.94,26.28.84,25.45.8,25l-.06-.66c0-.16,0-.32,0-.48,0-.38,0-.75-.07-1.13v-.09c0-.5,0-1,0-1.51H3.33c0,.5,0,1,0,1.48,0,.11,0,.22,0,.33a3.91,3.91,0,0,0,0,.49c0,.25,0,.51.06.74a0,0,0,0,0,0,0q0,.3.06.6a0,0,0,0,0,0,0c0,.28.05.54.09.81s.06.49.1.73c.06.46.14.91.23,1.36s.21,1.07.34,1.59.23.94.37,1.4c.19.68.4,1.34.64,2,.06.19.14.37.21.56a4.37,4.37,0,0,0,.18.46A2.33,2.33,0,0,0,5.8,34c.15.38.32.76.49,1.13.1.21.19.42.3.62A23.75,23.75,0,0,0,7.76,38l.2.32a23.24,23.24,0,0,0,1.36,2c.15.2.3.39.46.58s.29.37.45.55a5.82,5.82,0,0,0,.4.45h0c.18.2.36.39.55.58a3.07,3.07,0,0,0,.25.26c.31.32.63.62,1,.91l.1.09.36.31.21.17a16.8,16.8,0,0,0,10.7,4,23,23,0,0,0,15.93-6.82,7.15,7.15,0,0,0,.68-.67c.32-.32.64-.66,1-1l.11-.13c.37-.41.72-.86,1.08-1.29l.13-.17c3.47-4.39,6.41-10.4,8.36-18.27.12-.48.25-1,.36-1.44q.59-2.57,1-5.32c0-.3.09-.59.13-.89h0Q53.89,12.16,55.25,12.2Z"/><path class="cls-1" d="M56.17,1.6c0,.57-.05,1.13-.08,1.69S56,4.4,56,4.94,55.92,6,55.87,6.57s-.09,1.06-.14,1.58c0,.15,0,.3,0,.45,0,.3-.06.59-.09.88l-1.53,0-1.21,0c0-.38.09-.76.13-1.14.22-2.19.38-4.49.47-6.83Z"/><path class="cls-2" d="M49.71,68a4.17,4.17,0,0,1-.85-.09c-5.31-1.09-3.47-12.71-2.78-16.24l2.67.52c-1.14,5.88-1.15,12.68.66,13S53.23,63,55,60c.29-.6.62-1.19,1-1.77.07-.14.15-.28.23-.42a34.71,34.71,0,0,0,1.52-3.56l2.62.72a15.12,15.12,0,0,1-1.79,4.21c-.35.7-.74,1.45-1.18,2.2a3.45,3.45,0,0,0-.52,2.33c.18.44.87.85,1.93,1.15L58,67.46a5.61,5.61,0,0,1-3.42-2.2C53.14,66.85,51.49,68,49.71,68Z"/><path class="cls-1" d="M60.26,41.59a3.55,3.55,0,1,0,3.54,3.55A3.55,3.55,0,0,0,60.26,41.59Zm0,4.36a.82.82,0,0,1-.82-.81.82.82,0,0,1,1.64,0A.82.82,0,0,1,60.26,46Z"/><path class="cls-1" d="M47.73,43.77a3.55,3.55,0,1,0,3.54,3.55A3.55,3.55,0,0,0,47.73,43.77Zm0,4.36a.82.82,0,1,1,.82-.81A.82.82,0,0,1,47.73,48.13Z"/><path class="cls-1" d="M94.26,68.25c0,.11-.07.23-.11.34h0c-.35,1-.73,2-1.15,3a3.15,3.15,0,0,1-.88-.16c-2.62-.91-3.21-5-3.89-9.73-.38-2.65-1-7.09-2.1-7.6-.15-.07-.48,0-.87.27-1.12,1.1-2.18,9.22-2.59,12.29-.16,1.23-.3,2.29-.42,3.06-.17,1-.39,2.43-1.77,2.32s-1.35-1.49-1.35-2.24c0-.56,0-1.37.05-2.33a89.57,89.57,0,0,0-.06-9.23c-.33-4.16-1.11-5-1.28-5.11-.75,1-1.43,5.83-1.85,8.73-.83,5.84-1.34,9-2.82,10a1.45,1.45,0,0,1-.89.32,1.35,1.35,0,0,1-.73-.21c-1.09-.66-.66-2-.2-3.32.77-2.3.16-13.41-1.79-14.52a1.21,1.21,0,0,0-1.34,0,4.64,4.64,0,0,0-1.83,3.43,2.69,2.69,0,0,0,1.46,2.51A.36.36,0,0,0,68,60a1.16,1.16,0,0,0-.2-.61L70,57.79a3.7,3.7,0,0,1,.62,2.8,2.93,2.93,0,0,1-1.55,1.92,2.87,2.87,0,0,1-2.8-.2,5.52,5.52,0,0,1-2.59-4.67,7.27,7.27,0,0,1,3.14-5.85,3.91,3.91,0,0,1,4.1,0c1.52.87,2.42,3.33,2.91,6.17.74-4.57,1.47-7,3.23-7.47a2.8,2.8,0,0,1,2.5.52c1.14.91,1.77,2.78,2.11,5.24.58-2.29,1.25-3.64,2.14-4.19a3.55,3.55,0,0,1,3.49-.42c2.4,1.12,3,5.09,3.63,9.67.39,2.69,1,7.18,2.09,7.55C93.15,68.87,93.56,68.78,94.26,68.25Z"/><path class="cls-3" d="M96.83,69.63l-.24.22.12-.34Z"/><path class="cls-1" d="M34.15,76.24a5.66,5.66,0,0,1,.11.75c0,.13-.21.24-.61.32a3.8,3.8,0,0,1-.77.11,2.39,2.39,0,0,1-1.78-.73,2.52,2.52,0,0,1-.71-1.82,2.55,2.55,0,0,1,.71-1.82,2.35,2.35,0,0,1,1.78-.73,2.57,2.57,0,0,1,1.29.31c.09.05.13.09.13.14s0,.23-.14.58L34,74c0,.07-.06.1-.09.1l-.3-.08a2,2,0,0,0-.47-.08.91.91,0,0,0-.7.27.93.93,0,0,0-.27.7.91.91,0,0,0,.29.71,1.08,1.08,0,0,0,.74.26,1.37,1.37,0,0,0,.49-.11l.26-.11S34.06,75.82,34.15,76.24Z"/><path class="cls-1" d="M38.88,73.06a2.43,2.43,0,0,0-1.81-.7,2.39,2.39,0,0,0-1.81.71,2.61,2.61,0,0,0-.67,1.86,2.37,2.37,0,0,0,.7,1.77,2.67,2.67,0,0,0,3.59,0,2.73,2.73,0,0,0,0-3.63Zm-1.16,2.49a.82.82,0,0,1-1.28,0,1,1,0,0,1-.24-.68,1,1,0,0,1,.24-.68.81.81,0,0,1,.64-.31.77.77,0,0,1,.63.3,1.07,1.07,0,0,1,.24.69A1.05,1.05,0,0,1,37.72,75.55Z"/><path class="cls-1" d="M44.21,73.06a2.68,2.68,0,0,0-3.62,0,2.65,2.65,0,0,0-.67,1.86,2.4,2.4,0,0,0,.7,1.77,2.46,2.46,0,0,0,1.79.69,2.39,2.39,0,0,0,1.8-.7,2.73,2.73,0,0,0,0-3.63Zm-1.16,2.49a.76.76,0,0,1-.63.31.78.78,0,0,1-.64-.31,1,1,0,0,1-.24-.68,1,1,0,0,1,.24-.68.81.81,0,0,1,.64-.31.76.76,0,0,1,.62.3,1.08,1.08,0,0,1,.25.69A1,1,0,0,1,43.05,75.55Z"/><path class="cls-1" d="M49.8,75.84s0-.07.1-.11A1.78,1.78,0,0,0,51,74.08a1.53,1.53,0,0,0-.55-1.28,2.15,2.15,0,0,0-1.37-.4,2.06,2.06,0,0,0-1.56.67l-.12.11s0-.06,0-.15c0-.39,0-.93,0-1.64,0-.09,0-.26,0-.51s0-.38,0-.51,0-.14-.08-.14a3.26,3.26,0,0,0-.47,0,3.32,3.32,0,0,1-.48.06h-.78c-.09,0-.14,0-.14.13,0,.4,0,1,0,1.8s0,1.41,0,1.82v3c0,.12,0,.19.13.2a4.87,4.87,0,0,0,.7,0h.78a.14.14,0,0,0,.14-.16v-.5c0-.22,0-.38,0-.48a4.73,4.73,0,0,1,.89.07c.28.41.48.72.61.94s.25.13.58.13c.88,0,1.31,0,1.31-.13a6,6,0,0,0-.46-.65A3.79,3.79,0,0,1,49.8,75.84ZM48,75.11a1.47,1.47,0,0,1-.57-.06c-.08-.06-.11-.22-.11-.5A.65.65,0,0,1,47.7,74a1.19,1.19,0,0,1,.64-.23c.45,0,.68.2.68.6S48.68,75.11,48,75.11Z"/><path class="cls-1" d="M53.51,71.37c0,.57-.32.86-1,.86a1,1,0,0,1-.69-.22.83.83,0,0,1,0-1.27,1.07,1.07,0,0,1,.68-.23,1,1,0,0,1,.66.24A.76.76,0,0,1,53.51,71.37Z"/><path class="cls-1" d="M53.49,72.81a20.78,20.78,0,0,0-.1,2.22c0,.24,0,.6,0,1.07s0,.83,0,1.07c0,.07-.05.11-.13.12a5.56,5.56,0,0,1-.75,0,5.65,5.65,0,0,1-.76,0c-.07,0-.12,0-.13-.06a.42.42,0,0,1,0-.15c0-.22,0-.56,0-1s0-.8,0-1a18.28,18.28,0,0,0-.11-2.22.59.59,0,0,1,0-.11c0-.06,0-.1.13-.1l.42,0,.43,0,.43,0,.43,0c.08,0,.11,0,.11.1A.46.46,0,0,1,53.49,72.81Z"/><path class="cls-1" d="M58.53,75.19c.21,0,.32-.24.32-.57A2.28,2.28,0,0,0,58.19,73a2.13,2.13,0,0,0-1.61-.69,2.32,2.32,0,0,0-1.8.75,2.64,2.64,0,0,0-.66,1.85,2.43,2.43,0,0,0,.74,1.86,2.62,2.62,0,0,0,1.89.69,2.44,2.44,0,0,0,1.87-.65.2.2,0,0,0,.07-.11,1.87,1.87,0,0,0-.24-.58,1.38,1.38,0,0,0-.35-.5l-.37.24a2,2,0,0,1-.88.23,1.42,1.42,0,0,1-.66-.14.67.67,0,0,1-.41-.48c.76-.06,1.34-.11,1.73-.16ZM57,74.4a9.56,9.56,0,0,1-1.13.11c-.09,0-.14,0-.14-.13a.87.87,0,0,1,.19-.57.63.63,0,0,1,.51-.26.71.71,0,0,1,.52.23.79.79,0,0,1,.22.54S57.07,74.38,57,74.4Z"/><rect class="cls-1" x="21.85" y="48.4" width="2.72" height="29.15"/><path class="cls-3" d="M12.49,43.7l-.1-.09c-.33-.29-.65-.59-1-.91a3.07,3.07,0,0,1-.25-.26c-.19-.19-.37-.38-.55-.58Q10.27,43,10,44.17l0,.16c-.05.2-.09.39-.13.59v0h0l.76.7A18.07,18.07,0,0,0,12.2,47a0,0,0,0,1,0,0c.12-.71.27-1.42.44-2.12l0-.15c.05-.22.11-.44.17-.65h0Z"/><path class="cls-1" d="M96.72,69.49s0,0,0,0L95,67.65c-.26.25-.49.44-.69.6a42.6,42.6,0,0,0-1.38-30.74,11.4,11.4,0,0,0,1.32-.62L92.89,34.5l1.26-.69.62,1.3a45.36,45.36,0,0,1,2,34.38Z"/><path class="cls-1" d="M96.71,69.51l-.12.34a0,0,0,0,1,0,0A5.51,5.51,0,0,1,93,71.55c.42-1,.8-2,1.15-3h0c0-.11.08-.23.11-.34.2-.16.43-.35.69-.6Z"/><path class="cls-1" d="M96.58,69.86a45.2,45.2,0,0,1-41,30q-.8,0-1.59,0A45.26,45.26,0,0,1,9.82,45l.76.7A18.07,18.07,0,0,0,12.2,47a42.11,42.11,0,0,0-.67,9.19A42.54,42.54,0,0,0,54,97.16c.49,0,1,0,1.49,0A42.81,42.81,0,0,0,93,71.55,5.51,5.51,0,0,0,96.58,69.86Z"/><path class="cls-1" d="M52.85,9.47c-.1.93-.22,1.84-.35,2.73A42.59,42.59,0,0,0,12.85,44l-.36-.3-.1-.09c-.33-.29-.65-.59-1-.91a3.07,3.07,0,0,1-.25-.26c-.19-.19-.37-.38-.55-.58h0A45.31,45.31,0,0,1,52.43,9.48Z"/><path class="cls-1" d="M55.59,9.48c-.1.92-.21,1.83-.34,2.72q-1.36,0-2.73,0h0c.13-.89.25-1.8.35-2.73l1.21,0Z"/><path class="cls-1" d="M62.64,10.26l-.47,1.5L59.57,11c-.15.5-.28,1-.39,1.54-1.31-.16-2.61-.25-3.93-.29.13-.89.24-1.8.34-2.72a43.76,43.76,0,0,1,5.5.53Z"/><path class="cls-1" d="M55.07,13.51c-.12.77-.24,1.53-.39,2.27-.06.38-.13.74-.21,1.11-.2,1-.42,2-.64,2.94-.15.61-.3,1.21-.46,1.8-.1.4-.21.8-.32,1.19A48.26,48.26,0,0,1,45.44,39c-.42.58-.86,1.14-1.3,1.67a32.15,32.15,0,0,1-2.66,2.8l-.75.68c-.76.66-1.55,1.29-2.36,1.87a24.45,24.45,0,0,1-13.8,4.79h-.41a19.63,19.63,0,0,1-2.31-.13,20,20,0,0,1-9-3.26,1.88,1.88,0,0,1-.23-.16c-.14-.09-.28-.18-.41-.28a18.07,18.07,0,0,1-1.62-1.3L9.82,45h0A27.84,27.84,0,0,1,4,36.72c-.21-.46-.42-.92-.62-1.39s-.31-.76-.46-1.14a.58.58,0,0,1,0-.14c-.15-.4-.3-.81-.43-1.22a1.34,1.34,0,0,1-.09-.26c-.13-.39-.25-.79-.36-1.19s-.19-.68-.27-1a3.37,3.37,0,0,1-.12-.48c-.06-.23-.11-.45-.16-.68l-.18-.87c-.07-.38-.14-.75-.2-1.13S1,26.59.94,26.28.84,25.45.8,25l-.06-.66c0-.16,0-.32,0-.48,0-.38,0-.75-.07-1.13v-.09c0-.5,0-1,0-1.51H3.33c0,.5,0,1,0,1.48,0,.11,0,.22,0,.33a3.91,3.91,0,0,0,0,.49c0,.25,0,.5.06.74a0,0,0,0,0,0,0q0,.3.06.6a0,0,0,0,0,0,0q0,.41.09.81c0,.25.06.49.1.73.07.46.14.91.23,1.36s.21,1.07.34,1.59.24.94.37,1.4c.19.68.4,1.34.64,2,.07.19.13.38.21.56a4.37,4.37,0,0,0,.18.46c0,.09.07.19.11.28.15.38.32.76.49,1.13.09.21.19.42.3.62A23.75,23.75,0,0,0,7.76,38a2.14,2.14,0,0,0,.2.32,23.24,23.24,0,0,0,1.36,2,6.15,6.15,0,0,0,.46.58c.14.19.29.37.45.55a5.82,5.82,0,0,0,.4.45h0c.18.2.36.39.55.58a3.07,3.07,0,0,0,.25.26c.31.32.63.62,1,.91l.1.09.36.3h0l.21.17c7.52,6.08,17.25,4.24,23.72-.41a30,30,0,0,0,2.91-2.39c.23-.22.46-.44.68-.67s.65-.66,1-1l.11-.13c4.62-5.11,7.94-12.19,9.93-21.17q.59-2.57,1-5.32l2.69.42Z"/><path class="cls-1" d="M55.69,8.6,53,8.33c.22-2.19.38-4.49.47-6.83l2.72.1C56.08,4,55.92,6.36,55.69,8.6Z"/><path class="cls-1" d="M94.2,36.89a11.4,11.4,0,0,1-1.32.62,7.41,7.41,0,0,1-.79.28c-.2.07-.39.12-.59.17s-.48.12-.72.16l-.54.09-.41,0a10.31,10.31,0,0,1-1.24.07,11.74,11.74,0,0,1-11.11-8,14.84,14.84,0,0,1-3.33.37A15.27,15.27,0,0,1,58.9,15.44c0-.25,0-.5,0-.75s0-.39,0-.59,0-.25,0-.38c0-.41.11-.82.18-1.23s.24-1,.39-1.54l2.6.81A12.54,12.54,0,0,0,74.15,28,12.38,12.38,0,0,0,78,27.36l1.46-.48.3,1.51A9,9,0,0,0,92.89,34.5Z"/></svg>