<svg id="圖層_1" data-name="圖層 1" xmlns="http://www.w3.org/2000/svg" viewBox="0 0 101 101"><defs><style>.cls-1{fill:#f9e069;}.cls-2{fill:#f75c2f;}.cls-3{fill:#a6928c;}</style></defs><path class="cls-1" d="M23.76,50.92C11,50.92.6,37.57.6,21.16H3.33c0,14.91,9.16,27,20.43,27C36.63,48.2,52.12,36,53.45,1.5l2.72.1C54.77,38,37.84,50.92,23.76,50.92Z"/><path class="cls-2" d="M49.71,68a4.17,4.17,0,0,1-.85-.09c-5.31-1.09-3.47-12.71-2.78-16.24l2.67.52c-1.14,5.88-1.15,12.68.66,13S53.23,63,55,60c.29-.6.62-1.19,1-1.77.07-.14.15-.28.23-.42a34.71,34.71,0,0,0,1.52-3.56l2.62.72a15.12,15.12,0,0,1-1.79,4.21c-.35.7-.74,1.45-1.18,2.2a3.45,3.45,0,0,0-.52,2.33c.18.44.87.85,1.93,1.15L58,67.46a5.61,5.61,0,0,1-3.42-2.2C53.14,66.85,51.49,68,49.71,68Z"/><path class="cls-3" d="M60.26,48.68a3.55,3.55,0,1,1,3.54-3.54A3.55,3.55,0,0,1,60.26,48.68Zm0-4.36a.82.82,0,0,0-.82.82.82.82,0,0,0,1.64,0A.82.82,0,0,0,60.26,44.32Z"/><path class="cls-3" d="M47.73,50.86a3.55,3.55,0,1,1,3.54-3.54A3.55,3.55,0,0,1,47.73,50.86Zm0-4.36a.82.82,0,1,0,.82.82A.82.82,0,0,0,47.73,46.5Z"/><path class="cls-3" d="M72.28,72.17a1.35,1.35,0,0,1-.73-.21c-1.09-.66-.66-2-.2-3.32.77-2.3.16-13.41-1.79-14.52a1.21,1.21,0,0,0-1.34,0,4.64,4.64,0,0,0-1.83,3.43,2.69,2.69,0,0,0,1.46,2.51A.36.36,0,0,0,68,60a1.16,1.16,0,0,0-.2-.61L70,57.79a3.7,3.7,0,0,1,.62,2.8,2.93,2.93,0,0,1-1.55,1.92,2.87,2.87,0,0,1-2.8-.2,5.52,5.52,0,0,1-2.59-4.67,7.27,7.27,0,0,1,3.14-5.85,3.91,3.91,0,0,1,4.1,0c1.52.87,2.42,3.33,2.91,6.17.74-4.57,1.47-7,3.23-7.47a2.8,2.8,0,0,1,2.5.52c1.14.91,1.77,2.78,2.11,5.24.58-2.29,1.25-3.64,2.14-4.19a3.55,3.55,0,0,1,3.49-.42c2.4,1.12,3,5.09,3.63,9.67.39,2.69,1,7.18,2.09,7.55.18.06.82-.1,1.94-1.17l1.88,2c-.65.61-2.62,2.48-4.71,1.76-2.62-.91-3.21-5-3.89-9.73-.38-2.65-1-7.09-2.1-7.6-.15-.07-.48,0-.87.27-1.12,1.1-2.18,9.22-2.59,12.29-.16,1.23-.3,2.29-.42,3.06-.17,1-.39,2.43-1.77,2.32s-1.35-1.49-1.35-2.24c0-.56,0-1.37.05-2.33a89.57,89.57,0,0,0-.06-9.23c-.33-4.16-1.11-5-1.28-5.11-.75,1-1.43,5.83-1.85,8.73-.83,5.84-1.34,9-2.82,10A1.45,1.45,0,0,1,72.28,72.17Z"/><path class="cls-3" d="M33.89,74.05l-.3-.08a2,2,0,0,0-.47-.08.91.91,0,0,0-.7.27.93.93,0,0,0-.27.7.91.91,0,0,0,.29.71,1.08,1.08,0,0,0,.74.26,1.37,1.37,0,0,0,.49-.11l.26-.11s.13.21.22.63a5.66,5.66,0,0,1,.11.75c0,.13-.21.24-.61.32a3.8,3.8,0,0,1-.77.11,2.39,2.39,0,0,1-1.78-.73,2.52,2.52,0,0,1-.71-1.82,2.55,2.55,0,0,1,.71-1.82,2.35,2.35,0,0,1,1.78-.73,2.57,2.57,0,0,1,1.29.31c.09.05.13.09.13.14s0,.23-.14.58L34,74C34,74,33.92,74.05,33.89,74.05Z"/><path class="cls-3" d="M39.57,74.87a2.47,2.47,0,0,1-.69,1.82,2.67,2.67,0,0,1-3.59,0,2.37,2.37,0,0,1-.7-1.77,2.61,2.61,0,0,1,.67-1.86,2.39,2.39,0,0,1,1.81-.71,2.43,2.43,0,0,1,1.81.7A2.46,2.46,0,0,1,39.57,74.87Zm-1.62,0a1.07,1.07,0,0,0-.24-.69.77.77,0,0,0-.63-.3.81.81,0,0,0-.64.31,1,1,0,0,0-.24.68,1,1,0,0,0,.24.68.82.82,0,0,0,1.28,0A1.05,1.05,0,0,0,38,74.87Z"/><path class="cls-3" d="M44.9,74.87a2.47,2.47,0,0,1-.69,1.82,2.39,2.39,0,0,1-1.8.7,2.46,2.46,0,0,1-1.79-.69,2.4,2.4,0,0,1-.7-1.77,2.65,2.65,0,0,1,.67-1.86,2.68,2.68,0,0,1,3.62,0A2.46,2.46,0,0,1,44.9,74.87Zm-1.61,0a1.08,1.08,0,0,0-.25-.69.76.76,0,0,0-.62-.3.81.81,0,0,0-.64.31,1,1,0,0,0-.24.68,1,1,0,0,0,.24.68.78.78,0,0,0,.64.31.76.76,0,0,0,.63-.31A1,1,0,0,0,43.29,74.87Z"/><path class="cls-3" d="M51,74.08a1.78,1.78,0,0,1-1.07,1.65c-.06,0-.1.07-.1.11a3.79,3.79,0,0,0,.46.69,6,6,0,0,1,.46.65c0,.08-.43.13-1.31.13-.33,0-.52,0-.58-.13s-.33-.53-.61-.94a4.73,4.73,0,0,0-.89-.07c0,.1,0,.26,0,.48v.5a.14.14,0,0,1-.14.16h-.78a4.87,4.87,0,0,1-.7,0c-.08,0-.13-.08-.13-.2v-3c0-.41,0-1,0-1.82s0-1.4,0-1.8c0-.08,0-.12.14-.13h.78a3.32,3.32,0,0,0,.48-.06,3.26,3.26,0,0,1,.47,0c.05,0,.08,0,.08.14s0,.3,0,.51,0,.42,0,.51c0,.71,0,1.25,0,1.64q0,.14,0,.15l.12-.11a2.06,2.06,0,0,1,1.56-.67,2.15,2.15,0,0,1,1.37.4A1.53,1.53,0,0,1,51,74.08ZM49,74.4c0-.4-.23-.6-.68-.6a1.19,1.19,0,0,0-.64.23.65.65,0,0,0-.36.52c0,.28,0,.44.11.5a1.47,1.47,0,0,0,.57.06C48.68,75.11,49,74.87,49,74.4Z"/><path class="cls-3" d="M53.39,75c0,.24,0,.6,0,1.07s0,.83,0,1.07c0,.07-.05.11-.13.12a5.56,5.56,0,0,1-.75,0,5.65,5.65,0,0,1-.76,0c-.07,0-.12,0-.13-.06a.42.42,0,0,1,0-.15c0-.22,0-.56,0-1s0-.8,0-1a18.28,18.28,0,0,0-.11-2.22.59.59,0,0,1,0-.11c0-.06,0-.1.13-.1l.42,0,.43,0,.43,0,.43,0c.08,0,.11,0,.11.1a.46.46,0,0,1,0,.1A20.78,20.78,0,0,0,53.39,75Zm.12-3.66c0,.57-.32.86-1,.86a1,1,0,0,1-.69-.22.83.83,0,0,1,0-1.27,1.07,1.07,0,0,1,.68-.23,1,1,0,0,1,.66.24A.76.76,0,0,1,53.51,71.37Z"/><path class="cls-3" d="M58.85,74.62c0,.33-.11.52-.32.57l-1,.1c-.39,0-1,.1-1.73.16a.67.67,0,0,0,.41.48,1.42,1.42,0,0,0,.66.14,2,2,0,0,0,.88-.23l.37-.24a1.38,1.38,0,0,1,.35.5,1.87,1.87,0,0,1,.24.58.2.2,0,0,1-.07.11,2.44,2.44,0,0,1-1.87.65,2.62,2.62,0,0,1-1.89-.69,2.43,2.43,0,0,1-.74-1.86A2.64,2.64,0,0,1,54.78,73a2.32,2.32,0,0,1,1.8-.75,2.13,2.13,0,0,1,1.61.69A2.28,2.28,0,0,1,58.85,74.62Zm-1.72-.3a.79.79,0,0,0-.22-.54.71.71,0,0,0-.52-.23.63.63,0,0,0-.51.26.87.87,0,0,0-.19.57c0,.09.05.13.14.13A9.56,9.56,0,0,0,57,74.4C57.07,74.38,57.13,74.35,57.13,74.32Z"/><rect class="cls-1" x="21.85" y="48.4" width="2.72" height="29.15"/><path class="cls-3" d="M54,99.89A45.26,45.26,0,0,1,10,44.33h0l0-.16A45.33,45.33,0,0,1,52.43,9.48l1.63,0a44.54,44.54,0,0,1,7,.56l1.55.25-.47,1.5A12.54,12.54,0,0,0,74.15,28,12.38,12.38,0,0,0,78,27.36l1.46-.48.3,1.51A9,9,0,0,0,92.89,34.5l1.26-.69.62,1.3A45.22,45.22,0,0,1,55.56,99.86Q54.77,99.89,54,99.89ZM12.68,44.66l0,.15A42.54,42.54,0,0,0,54,97.16c.49,0,1,0,1.49,0A42.78,42.78,0,0,0,94.15,68.6h0a42.65,42.65,0,0,0-1.27-31.08,11.6,11.6,0,0,1-4.29.82,11.74,11.74,0,0,1-11.11-8,14.84,14.84,0,0,1-3.33.37,15.3,15.3,0,0,1-15-18.21,43.45,43.45,0,0,0-6.66-.29A42.59,42.59,0,0,0,12.68,44.66Z"/><path class="cls-1" d="M24.16,50.78a20.21,20.21,0,0,1-13.58-5.13C4.33,40.1.6,30.94.6,21.16H3.33c0,9,3.38,17.41,9.06,22.45,7.6,6.76,17.73,5,24.39.16C44.89,38,50.14,27.63,52.37,13.09l2.7.42c-2.36,15.28-8,26.21-16.7,32.47A24.44,24.44,0,0,1,24.16,50.78Z"/><path class="cls-1" d="M55.69,8.6,53,8.33c.22-2.19.38-4.49.47-6.83l2.72.1C56.08,4,55.92,6.36,55.69,8.6Z"/><path class="cls-3" d="M88.59,38.33a11.74,11.74,0,0,1-11.11-8,14.84,14.84,0,0,1-3.33.37A15.28,15.28,0,0,1,59.57,11l2.6.81A12.54,12.54,0,0,0,74.15,28,12.38,12.38,0,0,0,78,27.36l1.46-.48.3,1.51A9,9,0,0,0,92.89,34.5l1.31,2.39A11.62,11.62,0,0,1,88.59,38.33Z"/></svg>